<svg id="Layer_1" data-name="Layer 1" xmlns="http://www.w3.org/2000/svg" viewBox="0 0 840 151.72"><defs><style>.cls-1,.cls-2{fill:#262626;}.cls-2{font-size:53.86px;font-family:ArialMT, Arial;}</style></defs><title>ig</title><path class="cls-1" d="M331.62,81.68c-10.94,4.58-23,17.53-26.78,33.78C300,136,320.06,144.75,321.7,141.9c1.94-3.36-3.59-4.49-4.72-15.18-1.47-13.79,4.94-29.21,13-36,1.5-1.26,1.43.49,1.43,3.73,0,5.78-.32,57.72-.32,68.56,0,14.67-.6,19.3-1.69,23.87s-2.87,7.78-1.53,9c1.5,1.35,7.9-1.86,11.61-7,4.45-6.21,6-13.67,6.29-21.76.33-9.76.32-25.25.33-34.09,0-8.1.14-31.82-.14-46.08-.07-3.5-9.77-7.17-14.35-5.25m388.72,68.64a44.63,44.63,0,0,1-4.14,17.79c-4.05,8.14-12.47,10.67-16-1-1.95-6.38-2-17-.64-25.93,1.43-9.07,5.41-15.91,12-15.3s9.55,9,8.83,24.47ZM610.78,197.63c-.08,12.67-2.08,23.78-6.35,27-6.07,4.58-14.22,1.15-12.53-8.1,1.49-8.18,8.55-16.53,18.9-26.74,0,0,0,2.33,0,7.84Zm-1.65-47.38c-.37,6.94-2.17,13.92-4.14,17.86-4,8.14-12.53,10.68-16-1-2.4-8-1.83-18.37-.64-24.9,1.54-8.47,5.28-16.33,12-16.33,6.53,0,9.75,7.17,8.83,24.4Zm-63.47-.11c-.4,7.36-1.83,13.51-4.13,18-4.17,8.08-12.41,10.65-16-1-2.62-8.42-1.73-19.91-.64-26.11,1.62-9.21,5.67-15.73,12-15.12,6.49.64,9.65,9,8.82,24.29Zm290.85,8.59c-1.59,0-2.31,1.64-2.91,4.39-2.08,9.58-4.27,11.75-7.08,11.75-3.15,0-6-4.75-6.71-14.24-.57-7.47-.48-21.21.25-34.89.15-2.81-.62-5.59-8.16-8.33-3.24-1.17-8-2.91-10.3,2.76-6.63,16-9.23,28.71-9.84,33.87,0,.27-.36.32-.42-.3A267.47,267.47,0,0,1,790,126.31c0-3.08-.68-5.7-4.08-7.85-2.2-1.39-8.9-3.86-11.31-.93-2.09,2.4-4.51,8.85-7,16.49-2.05,6.22-3.47,10.42-3.47,10.42s0-16.76,0-23.12A3.27,3.27,0,0,0,762,118a45.19,45.19,0,0,0-8.5-1.73c-2.31,0-2.87,1.29-2.87,3.17,0,.24-.36,22.07-.36,37.33v2.16c-1.27,7-5.41,16.53-9.9,16.53s-6.63-4-6.63-22.17c0-10.62.32-15.23.48-22.91.09-4.42.27-7.82.26-8.59,0-2.36-4.12-3.55-6-4a17.32,17.32,0,0,0-4.87-.54,3,3,0,0,0-3.13,3c0,.89,0,2.57,0,2.57a17.61,17.61,0,0,0-8.7-7c-6.81-2-13.91-.23-19.28,7.27-4.26,6-6.82,12.71-7.84,22.41a66.88,66.88,0,0,0,.82,20.36c-1.59,6.86-4.53,9.67-7.76,9.67-4.68,0-8.08-7.64-7.68-20.86.26-8.7,2-14.8,3.9-23.63.81-3.77.15-5.74-1.5-7.62s-4.75-2.62-9.39-1.53c-3.31.77-8,1.61-12.36,2.25a24.68,24.68,0,0,0,.47-2.88c1.13-9.63-9.34-8.85-12.68-5.77a11.81,11.81,0,0,0-3.86,7.89,9.32,9.32,0,0,0,4.22,9.1A94.09,94.09,0,0,1,629,157a105.58,105.58,0,0,1-6.17,9.68c0-1.12,0-2.24,0-3.36,0-15.92.16-28.44.26-33s.26-7.72.25-8.5c0-1.72-1-2.38-3.13-3.2a22.41,22.41,0,0,0-6.33-1.42c-2.87-.22-4.6,1.3-4.56,3.11,0,.34,0,2.43,0,2.43a17.52,17.52,0,0,0-8.69-7c-6.81-2-13.92-.23-19.28,7.27-4.26,6-7,14.32-7.84,22.34a68.44,68.44,0,0,0,.4,19.15c-1.08,5.36-4.19,11-7.71,11-4.51,0-7.07-4-7.07-22.17,0-10.62.32-15.23.48-22.91.09-4.42.27-7.82.26-8.59,0-2.36-4.12-3.55-6-4a17.32,17.32,0,0,0-5-.53,3.23,3.23,0,0,0-3,2.85v2.68a17.58,17.58,0,0,0-8.7-7c-6.81-2-13.88-.2-19.28,7.27-3.52,4.87-6.37,10.27-7.84,22.23a74.45,74.45,0,0,0-.58,9.71c-1.41,8.59-7.61,18.49-12.68,18.49-3,0-5.8-5.76-5.8-18,0-16.35,1-39.62,1.18-41.87l7.66-.12c3.19,0,6.09,0,10.35-.18,2.13-.11,4.19-7.77,2-8.72-1-.43-8.06-.81-10.86-.87-2.36,0-8.91-.53-8.91-.53s.59-15.45.72-17.09c.12-1.36-1.64-2.06-2.65-2.48a35.75,35.75,0,0,0-7.25-2.07c-3.6-.75-5.23,0-5.55,3-.48,4.6-.73,18.09-.73,18.09-2.63,0-11.65-.52-14.29-.52-2.45,0-5.1,10.55-1.71,10.68,3.91.15,10.7.28,15.21.42,0,0-.2,23.66-.2,31,0,.78,0,1.53,0,2.25a35.69,35.69,0,0,1-11.22,19.91c1.88-8.55-2-15-8.86-20.41-2.54-2-7.56-5.79-13.18-10a34.09,34.09,0,0,0,6.14-9.66c2-4.57,2.13-9.8-2.89-11-8.29-1.91-15.12,4.18-17.16,10.68-1.58,5-.74,8.78,2.36,12.66.22.28.47.57.72.86-1.87,3.61-4.44,8.47-6.62,12.23-6,10.46-10.61,18.73-14.06,18.73-2.76,0-2.72-8.4-2.72-16.26,0-6.78.5-17,.9-27.52.13-3.49-1.61-5.47-4.54-7.27-1.78-1.1-5.57-3.25-7.77-3.25-3.28,0-12.77.45-21.73,26.37-1.13,3.27-3.35,9.23-3.35,9.23l.19-31.18a2.17,2.17,0,0,0-1.28-1.92,22.1,22.1,0,0,0-9.13-2.5c-1.71,0-2.56.8-2.56,2.38l-.31,48.78a71.26,71.26,0,0,0,.46,9.92,10.27,10.27,0,0,0,1.69,4.35,4.85,4.85,0,0,0,3,1.9c1.3.26,8.41,1.18,8.78-1.54.44-3.26.46-6.78,4.19-19.91,5.81-20.45,13.39-30.43,16.95-34,.62-.62,1.33-.66,1.3.36-.15,4.48-.69,15.68-1.05,25.2-1,25.47,3.67,30.19,10.29,30.19,5.07,0,12.21-5,19.86-17.77,4.78-7.94,9.41-15.73,12.74-21.34,2.32,2.15,4.92,4.46,7.52,6.93,6.05,5.74,8,11.19,6.72,16.36-1,4-4.8,8-11.56,4.07-2-1.16-2.8-2-4.78-3.35a3.41,3.41,0,0,0-3.66-.18,13,13,0,0,0-4.8,7.33c-.8,2.92,2.12,4.47,5.15,5.82A40.05,40.05,0,0,0,443.4,184c14,.47,25.11-6.73,32.89-25.3,1.39,16,7.31,25.11,17.61,25.11,6.88,0,13.77-8.89,16.79-17.64a31.19,31.19,0,0,0,3.8,9.29c7.93,12.57,23.32,9.86,31-.81a19.53,19.53,0,0,0,2.75-4.48c1.13,10.08,9.24,13.6,13.88,13.6,5.21,0,10.58-2.46,14.34-10.94a24.61,24.61,0,0,0,1.45,2.63c7.93,12.57,23.31,9.86,31-.81.37-.5.68-.95,1-1.36l.23,6.62-7.12,6.52c-11.91,10.93-21,19.22-21.63,28.87-.86,12.31,9.13,16.89,16.68,17.49,8,.63,14.89-3.8,19.11-10,3.72-5.46,6.15-17.2,6-28.81-.07-4.64-.19-10.55-.28-16.88a135.67,135.67,0,0,0,13.24-18.2,137.23,137.23,0,0,0,12.4-26.55s4.41,0,9.11-.27c1.51-.1,1.94.21,1.66,1.31-.33,1.33-5.94,23-.82,37.36,3.5,9.86,11.39,13,16.07,13,5.48,0,10.72-4.14,13.53-10.28a21.53,21.53,0,0,0,1.08,2c7.93,12.56,23.26,9.84,31-.81a31,31,0,0,0,2.75-4.48c1.67,10.42,9.78,13.65,14.42,13.65,4.84,0,9.43-2,13.16-10.8.15,3.88.4,7.05.79,8.05.23.61,1.61,1.38,2.61,1.75a20,20,0,0,0,10.61.53c1.15-.23,2-1.16,2.18-3.56.32-6.29.12-16.86,2-24.72,3.2-13.19,6.19-18.3,7.61-20.83.79-1.42,1.68-1.66,1.72-.15.06,3,.21,12,1.46,23.94.91,8.82,2.12,14,3.06,15.68,2.67,4.72,6,4.94,8.65,4.94,1.71,0,5.28-.47,5-3.47-.16-1.47.12-10.51,3.27-23.5a114.23,114.23,0,0,1,6.74-18.95c.46-1,.67-.22.66-.06-.26,5.84-.84,24.95,1.54,35.4,3.22,14.16,12.56,15.75,15.81,15.75,6.94,0,12.62-5.29,14.53-19.18.46-3.35-.22-5.93-2.26-5.93" transform="translate(1.07 -81.15)"/><text class="cls-2" transform="translate(0 90.23)">Powered by</text></svg>