<?xml version="1.0" encoding="utf-8"?>
<!-- Generator: Adobe Illustrator 23.0.1, SVG Export Plug-In . SVG Version: 6.00 Build 0)  -->
<svg version="1.1" id="Layer_1" xmlns="http://www.w3.org/2000/svg" xmlns:xlink="http://www.w3.org/1999/xlink" x="0px" y="0px"
	 viewBox="0 0 56.7 56.7" style="enable-background:new 0 0 56.7 56.7;" xml:space="preserve">
<style type="text/css">
	.st0{fill:#FB528F;}
</style>
<path class="st0" d="M35,8.6l0.5-0.8L36,7l1.2-1.8c0.2-0.2,0.1-0.5-0.1-0.7c-0.2-0.2-0.5-0.1-0.7,0.1l0,0l-1.3,1.9l-0.5,0.8L34,8.1
	C32.2,7.4,30.2,7,28.2,7c-2.1,0-4,0.4-5.8,1.1L22,7.4l-0.5-0.8l-1.3-1.9c-0.2-0.2-0.5-0.2-0.7-0.1c-0.2,0.2-0.2,0.4-0.1,0.6L20.6,7
	l0.5,0.8l0.5,0.8c-4.1,1.9-6.9,5.6-6.9,9.7h27.1C41.9,14.1,39.1,10.5,35,8.6z M22.5,14.4c-0.8,0-1.5-0.6-1.5-1.4
	c0-0.8,0.6-1.5,1.4-1.5h0.1c0.8,0,1.4,0.7,1.4,1.5C23.9,13.7,23.3,14.4,22.5,14.4z M34.2,14.4c-0.8,0-1.4-0.7-1.4-1.5
	s0.6-1.5,1.4-1.5c0.8,0,1.5,0.6,1.5,1.5C35.6,13.7,35,14.4,34.2,14.4z"/>
<path class="st0" d="M49.7,23.1v12.4c0,1.5-1.3,2.8-2.8,2.8c-1.6,0-2.9-1.2-3-2.8V23.1c0-1.6,1.3-2.9,2.9-2.9
	C48.4,20.2,49.7,21.5,49.7,23.1z"/>
<path class="st0" d="M12.8,23.1v12.4c0,1.5-1.3,2.8-2.8,2.8c-1.6,0-3-1.2-3-2.8V23.1c0-1.6,1.3-2.9,2.9-2.9S12.8,21.5,12.8,23.1z"/>
<path class="st0" d="M41.9,20.2v21.3c0,1.7-1.4,3.1-3.1,3.1h-2.2c0.1,0.3,0.1,0.5,0.1,0.8v6.1c0,1.6-1.3,2.9-2.9,2.9
	c-1.6,0-2.9-1.3-2.9-2.9v-6.1c0-0.3,0-0.5,0.1-0.8h-5.4c0.1,0.3,0.1,0.5,0.1,0.8v6.1c0,1.5-1.3,2.8-2.8,2.8c-1.6,0.1-3-1.2-3-2.8
	v-6.1c0-0.3,0-0.5,0.1-0.8h-2.2c-1.7,0-3.1-1.4-3.1-3.1V20.2H41.9z"/>
</svg>
