<?xml version="1.0" encoding="utf-8"?>
<!-- Generator: Adobe Illustrator 23.0.1, SVG Export Plug-In . SVG Version: 6.00 Build 0)  -->
<svg version="1.1" id="Layer_1" xmlns="http://www.w3.org/2000/svg" xmlns:xlink="http://www.w3.org/1999/xlink" x="0px" y="0px"
	 viewBox="0 0 56.7 56.7" style="enable-background:new 0 0 56.7 56.7;" xml:space="preserve">
<style type="text/css">
	.st0{fill:#FB528F;}
</style>
<path class="st0" d="M41.8,30.5c-0.1-6.2,5.1-9.2,5.3-9.4c-2.9-4.2-7.4-4.8-9-4.9c-3.8-0.4-7.5,2.3-9.4,2.3s-4.9-2.2-8.1-2.1
	c-4.2,0.1-8,2.4-10.2,6.2C6,30.1,9.3,41.2,13.5,47.3c2.1,3,4.5,6.3,7.8,6.2c3.1-0.1,4.3-2,8.1-2s4.8,2,8.1,2c3.4-0.1,5.5-3,7.5-6
	c2.4-3.5,3.3-6.8,3.4-7C48.3,40.4,41.8,38,41.8,30.5z M35.6,12.2c1.7-2.1,2.9-5,2.6-7.9C35.7,4.4,32.7,5.9,31,8
	c-1.6,1.8-3,4.8-2.6,7.6C31,15.9,33.9,14.3,35.6,12.2z"/>
</svg>
