<?xml version="1.0" encoding="utf-8"?>
<!-- Generator: Adobe Illustrator 23.0.1, SVG Export Plug-In . SVG Version: 6.00 Build 0)  -->
<svg version="1.1" id="Icons" xmlns="http://www.w3.org/2000/svg" xmlns:xlink="http://www.w3.org/1999/xlink" x="0px" y="0px"
	 viewBox="0 0 32 32" style="enable-background:new 0 0 32 32;" xml:space="preserve">
<style type="text/css">
	.st0{fill:#FB528F;}
</style>
<path class="st0" d="M29.9,24.6l-2-5C27.8,19.2,27.4,19,27,19V7c0-0.6-0.4-1-1-1H6C5.4,6,5,6.4,5,7v12c-0.4,0-0.8,0.2-0.9,0.6l-2,5
	C2,24.9,2,25.3,2.2,25.5S2.7,26,3,26h26c0.3,0,0.6-0.2,0.8-0.4S30.1,24.9,29.9,24.6z M7,8h18v11H7V8z"/>
</svg>
